<mxfile host="app.diagrams.net" agent="Mozilla/5.0 (Windows NT 10.0; Win64; x64) AppleWebKit/537.36 (KHTML, like Gecko) Chrome/129.0.0.0 Safari/537.36" version="24.7.17">
  <diagram name="Page-1" id="lWLH1tpzrvS0sd3-uBq3">
    <mxGraphModel dx="1173" dy="1679" grid="1" gridSize="10" guides="1" tooltips="1" connect="1" arrows="1" fold="1" page="1" pageScale="1" pageWidth="1700" pageHeight="1100" math="0" shadow="0">
      <root>
        <mxCell id="0" />
        <mxCell id="1" parent="0" />
        <mxCell id="yM70JIaqnsp8e-wU7bxv-1" value="&lt;font style=&quot;font-size: 16px;&quot;&gt;User&lt;/font&gt;" style="rounded=0;whiteSpace=wrap;html=1;strokeWidth=1;fontSize=16;" vertex="1" parent="1">
          <mxGeometry x="360" y="200" width="120" height="60" as="geometry" />
        </mxCell>
        <mxCell id="yM70JIaqnsp8e-wU7bxv-2" value="user_id" style="ellipse;whiteSpace=wrap;html=1;strokeWidth=1;fontSize=16;" vertex="1" parent="1">
          <mxGeometry x="170" y="60" width="120" height="60" as="geometry" />
        </mxCell>
        <mxCell id="yM70JIaqnsp8e-wU7bxv-3" value="" style="endArrow=none;html=1;rounded=0;entryX=0.417;entryY=0;entryDx=0;entryDy=0;entryPerimeter=0;exitX=0.792;exitY=0.933;exitDx=0;exitDy=0;exitPerimeter=0;strokeWidth=1;fontSize=16;" edge="1" parent="1" source="yM70JIaqnsp8e-wU7bxv-2" target="yM70JIaqnsp8e-wU7bxv-1">
          <mxGeometry width="50" height="50" relative="1" as="geometry">
            <mxPoint x="250" y="150" as="sourcePoint" />
            <mxPoint x="411" y="190" as="targetPoint" />
          </mxGeometry>
        </mxCell>
        <mxCell id="yM70JIaqnsp8e-wU7bxv-5" value="name" style="ellipse;whiteSpace=wrap;html=1;strokeWidth=1;fontSize=16;" vertex="1" parent="1">
          <mxGeometry x="280" y="10" width="120" height="60" as="geometry" />
        </mxCell>
        <mxCell id="yM70JIaqnsp8e-wU7bxv-6" value="" style="endArrow=none;html=1;rounded=0;entryX=0.717;entryY=0.967;entryDx=0;entryDy=0;entryPerimeter=0;strokeWidth=1;fontSize=16;" edge="1" parent="1" target="yM70JIaqnsp8e-wU7bxv-5">
          <mxGeometry width="50" height="50" relative="1" as="geometry">
            <mxPoint x="410" y="200" as="sourcePoint" />
            <mxPoint x="440" y="200" as="targetPoint" />
          </mxGeometry>
        </mxCell>
        <mxCell id="yM70JIaqnsp8e-wU7bxv-8" value="email" style="ellipse;whiteSpace=wrap;html=1;fontSize=16;" vertex="1" parent="1">
          <mxGeometry x="410" y="-10" width="120" height="60" as="geometry" />
        </mxCell>
        <mxCell id="yM70JIaqnsp8e-wU7bxv-9" value="" style="endArrow=none;html=1;rounded=0;entryX=0.5;entryY=1;entryDx=0;entryDy=0;exitX=0.417;exitY=0;exitDx=0;exitDy=0;exitPerimeter=0;strokeWidth=1;fontSize=16;" edge="1" parent="1" source="yM70JIaqnsp8e-wU7bxv-1" target="yM70JIaqnsp8e-wU7bxv-8">
          <mxGeometry width="50" height="50" relative="1" as="geometry">
            <mxPoint x="390" y="150" as="sourcePoint" />
            <mxPoint x="440" y="100" as="targetPoint" />
          </mxGeometry>
        </mxCell>
        <mxCell id="yM70JIaqnsp8e-wU7bxv-10" value="password" style="ellipse;whiteSpace=wrap;html=1;strokeWidth=1;fontSize=16;" vertex="1" parent="1">
          <mxGeometry x="530" y="20" width="120" height="60" as="geometry" />
        </mxCell>
        <mxCell id="yM70JIaqnsp8e-wU7bxv-11" value="" style="endArrow=none;html=1;rounded=0;exitX=0.442;exitY=-0.017;exitDx=0;exitDy=0;exitPerimeter=0;entryX=0.333;entryY=1;entryDx=0;entryDy=0;entryPerimeter=0;strokeWidth=1;fontSize=16;" edge="1" parent="1" source="yM70JIaqnsp8e-wU7bxv-1" target="yM70JIaqnsp8e-wU7bxv-10">
          <mxGeometry width="50" height="50" relative="1" as="geometry">
            <mxPoint x="390" y="150" as="sourcePoint" />
            <mxPoint x="550" y="70" as="targetPoint" />
          </mxGeometry>
        </mxCell>
        <mxCell id="yM70JIaqnsp8e-wU7bxv-12" value="about" style="ellipse;whiteSpace=wrap;html=1;strokeWidth=1;fontSize=16;" vertex="1" parent="1">
          <mxGeometry x="600" y="80" width="120" height="60" as="geometry" />
        </mxCell>
        <mxCell id="yM70JIaqnsp8e-wU7bxv-13" value="" style="endArrow=none;html=1;rounded=0;entryX=0.5;entryY=1;entryDx=0;entryDy=0;strokeWidth=1;fontSize=16;" edge="1" parent="1" target="yM70JIaqnsp8e-wU7bxv-12">
          <mxGeometry width="50" height="50" relative="1" as="geometry">
            <mxPoint x="410" y="200" as="sourcePoint" />
            <mxPoint x="440" y="100" as="targetPoint" />
          </mxGeometry>
        </mxCell>
        <mxCell id="yM70JIaqnsp8e-wU7bxv-275" value="&lt;font style=&quot;font-size: 16px;&quot;&gt;post&lt;/font&gt;" style="rounded=0;whiteSpace=wrap;html=1;fontSize=16;" vertex="1" parent="1">
          <mxGeometry x="1080" y="200" width="120" height="60" as="geometry" />
        </mxCell>
        <mxCell id="yM70JIaqnsp8e-wU7bxv-276" value="post_id" style="ellipse;whiteSpace=wrap;html=1;fontSize=16;" vertex="1" parent="1">
          <mxGeometry x="840" y="90" width="120" height="60" as="geometry" />
        </mxCell>
        <mxCell id="yM70JIaqnsp8e-wU7bxv-280" value="" style="endArrow=none;html=1;rounded=0;exitX=0.5;exitY=0;exitDx=0;exitDy=0;entryX=0.5;entryY=1;entryDx=0;entryDy=0;fontSize=16;" edge="1" parent="1" source="yM70JIaqnsp8e-wU7bxv-275" target="yM70JIaqnsp8e-wU7bxv-276">
          <mxGeometry width="50" height="50" relative="1" as="geometry">
            <mxPoint x="860" y="150" as="sourcePoint" />
            <mxPoint x="910" y="100" as="targetPoint" />
          </mxGeometry>
        </mxCell>
        <mxCell id="yM70JIaqnsp8e-wU7bxv-281" value="title" style="ellipse;whiteSpace=wrap;html=1;fontSize=16;" vertex="1" parent="1">
          <mxGeometry x="910" y="30" width="120" height="60" as="geometry" />
        </mxCell>
        <mxCell id="yM70JIaqnsp8e-wU7bxv-282" value="" style="endArrow=none;html=1;rounded=0;exitX=0.5;exitY=0;exitDx=0;exitDy=0;entryX=0.5;entryY=1;entryDx=0;entryDy=0;fontSize=16;" edge="1" parent="1" source="yM70JIaqnsp8e-wU7bxv-275" target="yM70JIaqnsp8e-wU7bxv-281">
          <mxGeometry width="50" height="50" relative="1" as="geometry">
            <mxPoint x="860" y="150" as="sourcePoint" />
            <mxPoint x="940" y="120" as="targetPoint" />
          </mxGeometry>
        </mxCell>
        <mxCell id="yM70JIaqnsp8e-wU7bxv-283" value="content" style="ellipse;whiteSpace=wrap;html=1;fontSize=16;" vertex="1" parent="1">
          <mxGeometry x="1030" width="120" height="60" as="geometry" />
        </mxCell>
        <mxCell id="yM70JIaqnsp8e-wU7bxv-284" value="" style="endArrow=none;html=1;rounded=0;exitX=0.5;exitY=0;exitDx=0;exitDy=0;entryX=0.5;entryY=1;entryDx=0;entryDy=0;fontSize=16;" edge="1" parent="1" source="yM70JIaqnsp8e-wU7bxv-275" target="yM70JIaqnsp8e-wU7bxv-283">
          <mxGeometry width="50" height="50" relative="1" as="geometry">
            <mxPoint x="860" y="150" as="sourcePoint" />
            <mxPoint x="910" y="100" as="targetPoint" />
          </mxGeometry>
        </mxCell>
        <mxCell id="yM70JIaqnsp8e-wU7bxv-285" value="image" style="ellipse;whiteSpace=wrap;html=1;fontSize=16;" vertex="1" parent="1">
          <mxGeometry x="1170" width="120" height="60" as="geometry" />
        </mxCell>
        <mxCell id="yM70JIaqnsp8e-wU7bxv-286" value="" style="endArrow=none;html=1;rounded=0;entryX=0.5;entryY=1;entryDx=0;entryDy=0;exitX=0.5;exitY=0;exitDx=0;exitDy=0;fontSize=16;" edge="1" parent="1" source="yM70JIaqnsp8e-wU7bxv-275" target="yM70JIaqnsp8e-wU7bxv-285">
          <mxGeometry width="50" height="50" relative="1" as="geometry">
            <mxPoint x="980" y="210" as="sourcePoint" />
            <mxPoint x="1030" y="160" as="targetPoint" />
          </mxGeometry>
        </mxCell>
        <mxCell id="yM70JIaqnsp8e-wU7bxv-287" value="user_id" style="ellipse;whiteSpace=wrap;html=1;fontSize=16;" vertex="1" parent="1">
          <mxGeometry x="1300" y="30" width="120" height="60" as="geometry" />
        </mxCell>
        <mxCell id="yM70JIaqnsp8e-wU7bxv-288" value="" style="endArrow=none;html=1;rounded=0;entryX=0.5;entryY=1;entryDx=0;entryDy=0;exitX=0.5;exitY=0;exitDx=0;exitDy=0;fontSize=16;" edge="1" parent="1" source="yM70JIaqnsp8e-wU7bxv-275" target="yM70JIaqnsp8e-wU7bxv-287">
          <mxGeometry width="50" height="50" relative="1" as="geometry">
            <mxPoint x="980" y="210" as="sourcePoint" />
            <mxPoint x="1030" y="160" as="targetPoint" />
          </mxGeometry>
        </mxCell>
        <mxCell id="yM70JIaqnsp8e-wU7bxv-289" value="category_id" style="ellipse;whiteSpace=wrap;html=1;fontSize=16;" vertex="1" parent="1">
          <mxGeometry x="1410" y="80" width="120" height="60" as="geometry" />
        </mxCell>
        <mxCell id="yM70JIaqnsp8e-wU7bxv-290" value="" style="endArrow=none;html=1;rounded=0;entryX=0;entryY=1;entryDx=0;entryDy=0;exitX=0.5;exitY=0;exitDx=0;exitDy=0;fontSize=16;" edge="1" parent="1" source="yM70JIaqnsp8e-wU7bxv-275" target="yM70JIaqnsp8e-wU7bxv-289">
          <mxGeometry width="50" height="50" relative="1" as="geometry">
            <mxPoint x="990" y="210" as="sourcePoint" />
            <mxPoint x="1040" y="160" as="targetPoint" />
          </mxGeometry>
        </mxCell>
        <mxCell id="yM70JIaqnsp8e-wU7bxv-291" value="comment" style="rounded=0;whiteSpace=wrap;html=1;fontSize=16;" vertex="1" parent="1">
          <mxGeometry x="720" y="490" width="120" height="60" as="geometry" />
        </mxCell>
        <mxCell id="yM70JIaqnsp8e-wU7bxv-292" value="comment_id" style="ellipse;whiteSpace=wrap;html=1;fontSize=16;" vertex="1" parent="1">
          <mxGeometry x="510" y="600" width="120" height="60" as="geometry" />
        </mxCell>
        <mxCell id="yM70JIaqnsp8e-wU7bxv-293" value="" style="endArrow=none;html=1;rounded=0;exitX=0.5;exitY=0;exitDx=0;exitDy=0;entryX=0.5;entryY=1;entryDx=0;entryDy=0;fontSize=16;" edge="1" parent="1" source="yM70JIaqnsp8e-wU7bxv-292" target="yM70JIaqnsp8e-wU7bxv-291">
          <mxGeometry width="50" height="50" relative="1" as="geometry">
            <mxPoint x="700" y="510" as="sourcePoint" />
            <mxPoint x="750" y="460" as="targetPoint" />
          </mxGeometry>
        </mxCell>
        <mxCell id="yM70JIaqnsp8e-wU7bxv-294" value="comment" style="ellipse;whiteSpace=wrap;html=1;fontSize=16;" vertex="1" parent="1">
          <mxGeometry x="640" y="650" width="120" height="60" as="geometry" />
        </mxCell>
        <mxCell id="yM70JIaqnsp8e-wU7bxv-297" value="" style="endArrow=none;html=1;rounded=0;exitX=0.5;exitY=0;exitDx=0;exitDy=0;entryX=0.5;entryY=1;entryDx=0;entryDy=0;fontSize=16;" edge="1" parent="1" source="yM70JIaqnsp8e-wU7bxv-294" target="yM70JIaqnsp8e-wU7bxv-291">
          <mxGeometry width="50" height="50" relative="1" as="geometry">
            <mxPoint x="700" y="510" as="sourcePoint" />
            <mxPoint x="750" y="460" as="targetPoint" />
          </mxGeometry>
        </mxCell>
        <mxCell id="yM70JIaqnsp8e-wU7bxv-298" value="user_id" style="ellipse;whiteSpace=wrap;html=1;fontSize=16;" vertex="1" parent="1">
          <mxGeometry x="790" y="650" width="120" height="60" as="geometry" />
        </mxCell>
        <mxCell id="yM70JIaqnsp8e-wU7bxv-299" value="" style="endArrow=none;html=1;rounded=0;exitX=0.5;exitY=0;exitDx=0;exitDy=0;fontSize=16;" edge="1" parent="1" source="yM70JIaqnsp8e-wU7bxv-298">
          <mxGeometry width="50" height="50" relative="1" as="geometry">
            <mxPoint x="700" y="510" as="sourcePoint" />
            <mxPoint x="780" y="550" as="targetPoint" />
          </mxGeometry>
        </mxCell>
        <mxCell id="yM70JIaqnsp8e-wU7bxv-300" value="post_id" style="ellipse;whiteSpace=wrap;html=1;fontSize=16;" vertex="1" parent="1">
          <mxGeometry x="900" y="590" width="120" height="60" as="geometry" />
        </mxCell>
        <mxCell id="yM70JIaqnsp8e-wU7bxv-301" value="" style="endArrow=none;html=1;rounded=0;exitX=0.5;exitY=0;exitDx=0;exitDy=0;fontSize=16;" edge="1" parent="1" source="yM70JIaqnsp8e-wU7bxv-300">
          <mxGeometry width="50" height="50" relative="1" as="geometry">
            <mxPoint x="700" y="510" as="sourcePoint" />
            <mxPoint x="780" y="550" as="targetPoint" />
          </mxGeometry>
        </mxCell>
        <mxCell id="yM70JIaqnsp8e-wU7bxv-302" value="" style="rhombus;whiteSpace=wrap;html=1;fontSize=16;" vertex="1" parent="1">
          <mxGeometry x="440" y="380" width="80" height="80" as="geometry" />
        </mxCell>
        <mxCell id="yM70JIaqnsp8e-wU7bxv-303" value="" style="endArrow=none;html=1;rounded=0;exitX=0.5;exitY=1;exitDx=0;exitDy=0;entryX=0.5;entryY=0;entryDx=0;entryDy=0;fontSize=16;" edge="1" parent="1" source="yM70JIaqnsp8e-wU7bxv-1" target="yM70JIaqnsp8e-wU7bxv-302">
          <mxGeometry width="50" height="50" relative="1" as="geometry">
            <mxPoint x="700" y="510" as="sourcePoint" />
            <mxPoint x="750" y="460" as="targetPoint" />
          </mxGeometry>
        </mxCell>
        <mxCell id="yM70JIaqnsp8e-wU7bxv-304" value="" style="endArrow=none;html=1;rounded=0;exitX=0;exitY=0;exitDx=0;exitDy=0;entryX=1;entryY=0.5;entryDx=0;entryDy=0;fontSize=16;" edge="1" parent="1" source="yM70JIaqnsp8e-wU7bxv-291" target="yM70JIaqnsp8e-wU7bxv-302">
          <mxGeometry width="50" height="50" relative="1" as="geometry">
            <mxPoint x="700" y="510" as="sourcePoint" />
            <mxPoint x="750" y="460" as="targetPoint" />
          </mxGeometry>
        </mxCell>
        <mxCell id="yM70JIaqnsp8e-wU7bxv-305" value="&lt;font style=&quot;font-size: 16px;&quot;&gt;1&lt;/font&gt;" style="text;html=1;align=center;verticalAlign=middle;resizable=0;points=[];autosize=1;strokeColor=none;fillColor=none;fontSize=16;" vertex="1" parent="1">
          <mxGeometry x="450" y="310" width="30" height="30" as="geometry" />
        </mxCell>
        <mxCell id="yM70JIaqnsp8e-wU7bxv-306" value="&lt;font style=&quot;font-size: 16px;&quot;&gt;n&lt;/font&gt;" style="text;html=1;align=center;verticalAlign=middle;resizable=0;points=[];autosize=1;strokeColor=none;fillColor=none;fontSize=16;" vertex="1" parent="1">
          <mxGeometry x="630" y="440" width="30" height="30" as="geometry" />
        </mxCell>
        <mxCell id="yM70JIaqnsp8e-wU7bxv-307" value="" style="rhombus;whiteSpace=wrap;html=1;fontSize=16;" vertex="1" parent="1">
          <mxGeometry x="985" y="380" width="80" height="80" as="geometry" />
        </mxCell>
        <mxCell id="yM70JIaqnsp8e-wU7bxv-311" value="" style="endArrow=none;html=1;rounded=0;entryX=0.5;entryY=1;entryDx=0;entryDy=0;exitX=0.5;exitY=0;exitDx=0;exitDy=0;fontSize=16;" edge="1" parent="1" source="yM70JIaqnsp8e-wU7bxv-307" target="yM70JIaqnsp8e-wU7bxv-275">
          <mxGeometry width="50" height="50" relative="1" as="geometry">
            <mxPoint x="1070" y="410" as="sourcePoint" />
            <mxPoint x="750" y="460" as="targetPoint" />
          </mxGeometry>
        </mxCell>
        <mxCell id="yM70JIaqnsp8e-wU7bxv-315" value="" style="endArrow=none;html=1;rounded=0;exitX=1;exitY=0;exitDx=0;exitDy=0;entryX=0;entryY=0.5;entryDx=0;entryDy=0;fontSize=16;" edge="1" parent="1" source="yM70JIaqnsp8e-wU7bxv-291" target="yM70JIaqnsp8e-wU7bxv-307">
          <mxGeometry width="50" height="50" relative="1" as="geometry">
            <mxPoint x="700" y="510" as="sourcePoint" />
            <mxPoint x="1000" y="420" as="targetPoint" />
          </mxGeometry>
        </mxCell>
        <mxCell id="yM70JIaqnsp8e-wU7bxv-316" value="&lt;font style=&quot;font-size: 16px;&quot;&gt;1&lt;/font&gt;" style="text;html=1;align=center;verticalAlign=middle;resizable=0;points=[];autosize=1;strokeColor=none;fillColor=none;fontSize=16;" vertex="1" parent="1">
          <mxGeometry x="1050" y="310" width="30" height="30" as="geometry" />
        </mxCell>
        <mxCell id="yM70JIaqnsp8e-wU7bxv-317" value="&lt;font style=&quot;font-size: 16px;&quot;&gt;n&lt;/font&gt;" style="text;html=1;align=center;verticalAlign=middle;resizable=0;points=[];autosize=1;strokeColor=none;fillColor=none;fontSize=16;" vertex="1" parent="1">
          <mxGeometry x="890" y="430" width="30" height="30" as="geometry" />
        </mxCell>
        <mxCell id="yM70JIaqnsp8e-wU7bxv-318" value="" style="rhombus;whiteSpace=wrap;html=1;fontSize=16;" vertex="1" parent="1">
          <mxGeometry x="730" y="190" width="80" height="80" as="geometry" />
        </mxCell>
        <mxCell id="yM70JIaqnsp8e-wU7bxv-319" value="" style="endArrow=none;html=1;rounded=0;exitX=1;exitY=0.5;exitDx=0;exitDy=0;fontSize=16;" edge="1" parent="1" source="yM70JIaqnsp8e-wU7bxv-1" target="yM70JIaqnsp8e-wU7bxv-318">
          <mxGeometry width="50" height="50" relative="1" as="geometry">
            <mxPoint x="700" y="370" as="sourcePoint" />
            <mxPoint x="750" y="320" as="targetPoint" />
          </mxGeometry>
        </mxCell>
        <mxCell id="yM70JIaqnsp8e-wU7bxv-320" value="" style="endArrow=none;html=1;rounded=0;entryX=0;entryY=0.5;entryDx=0;entryDy=0;exitX=1;exitY=0.5;exitDx=0;exitDy=0;fontSize=16;" edge="1" parent="1" source="yM70JIaqnsp8e-wU7bxv-318" target="yM70JIaqnsp8e-wU7bxv-275">
          <mxGeometry width="50" height="50" relative="1" as="geometry">
            <mxPoint x="700" y="370" as="sourcePoint" />
            <mxPoint x="750" y="320" as="targetPoint" />
          </mxGeometry>
        </mxCell>
        <mxCell id="yM70JIaqnsp8e-wU7bxv-321" value="&lt;font style=&quot;font-size: 16px;&quot;&gt;1&lt;/font&gt;" style="text;html=1;align=center;verticalAlign=middle;resizable=0;points=[];autosize=1;strokeColor=none;fillColor=none;fontSize=16;" vertex="1" parent="1">
          <mxGeometry x="610" y="200" width="30" height="30" as="geometry" />
        </mxCell>
        <mxCell id="yM70JIaqnsp8e-wU7bxv-322" value="n" style="text;html=1;align=center;verticalAlign=middle;resizable=0;points=[];autosize=1;strokeColor=none;fillColor=none;fontSize=16;" vertex="1" parent="1">
          <mxGeometry x="900" y="200" width="30" height="30" as="geometry" />
        </mxCell>
        <mxCell id="yM70JIaqnsp8e-wU7bxv-325" value="category" style="rounded=0;whiteSpace=wrap;html=1;fontSize=16;" vertex="1" parent="1">
          <mxGeometry x="1370" y="390" width="120" height="60" as="geometry" />
        </mxCell>
        <mxCell id="yM70JIaqnsp8e-wU7bxv-330" value="category_id" style="ellipse;whiteSpace=wrap;html=1;fontSize=16;" vertex="1" parent="1">
          <mxGeometry x="1300" y="520" width="120" height="60" as="geometry" />
        </mxCell>
        <mxCell id="yM70JIaqnsp8e-wU7bxv-333" value="" style="endArrow=none;html=1;rounded=0;exitX=0.5;exitY=0;exitDx=0;exitDy=0;entryX=0.5;entryY=1;entryDx=0;entryDy=0;fontSize=16;" edge="1" parent="1" source="yM70JIaqnsp8e-wU7bxv-330" target="yM70JIaqnsp8e-wU7bxv-325">
          <mxGeometry width="50" height="50" relative="1" as="geometry">
            <mxPoint x="1430" y="630" as="sourcePoint" />
            <mxPoint x="1480" y="580" as="targetPoint" />
          </mxGeometry>
        </mxCell>
        <mxCell id="yM70JIaqnsp8e-wU7bxv-334" value="title" style="ellipse;whiteSpace=wrap;html=1;fontSize=16;" vertex="1" parent="1">
          <mxGeometry x="1470" y="510" width="120" height="60" as="geometry" />
        </mxCell>
        <mxCell id="yM70JIaqnsp8e-wU7bxv-335" value="" style="endArrow=none;html=1;rounded=0;entryX=0.5;entryY=0;entryDx=0;entryDy=0;exitX=0.5;exitY=1;exitDx=0;exitDy=0;fontSize=16;" edge="1" parent="1" source="yM70JIaqnsp8e-wU7bxv-325" target="yM70JIaqnsp8e-wU7bxv-334">
          <mxGeometry width="50" height="50" relative="1" as="geometry">
            <mxPoint x="1430" y="630" as="sourcePoint" />
            <mxPoint x="1480" y="580" as="targetPoint" />
          </mxGeometry>
        </mxCell>
        <mxCell id="yM70JIaqnsp8e-wU7bxv-336" value="" style="rhombus;whiteSpace=wrap;html=1;fontSize=16;" vertex="1" parent="1">
          <mxGeometry x="1240" y="310" width="80" height="80" as="geometry" />
        </mxCell>
        <mxCell id="yM70JIaqnsp8e-wU7bxv-337" value="" style="endArrow=none;html=1;rounded=0;exitX=0.5;exitY=0;exitDx=0;exitDy=0;entryX=1;entryY=0.5;entryDx=0;entryDy=0;fontSize=16;" edge="1" parent="1" source="yM70JIaqnsp8e-wU7bxv-325" target="yM70JIaqnsp8e-wU7bxv-336">
          <mxGeometry width="50" height="50" relative="1" as="geometry">
            <mxPoint x="1430" y="370" as="sourcePoint" />
            <mxPoint x="1480" y="320" as="targetPoint" />
          </mxGeometry>
        </mxCell>
        <mxCell id="yM70JIaqnsp8e-wU7bxv-338" value="" style="endArrow=none;html=1;rounded=0;exitX=0.5;exitY=0;exitDx=0;exitDy=0;entryX=1;entryY=1;entryDx=0;entryDy=0;fontSize=16;" edge="1" parent="1" source="yM70JIaqnsp8e-wU7bxv-336" target="yM70JIaqnsp8e-wU7bxv-275">
          <mxGeometry width="50" height="50" relative="1" as="geometry">
            <mxPoint x="1430" y="370" as="sourcePoint" />
            <mxPoint x="1140" y="260" as="targetPoint" />
          </mxGeometry>
        </mxCell>
        <mxCell id="yM70JIaqnsp8e-wU7bxv-339" value="&lt;font style=&quot;font-size: 16px;&quot;&gt;n&lt;/font&gt;" style="text;html=1;align=center;verticalAlign=middle;resizable=0;points=[];autosize=1;strokeColor=none;fillColor=none;fontSize=16;" vertex="1" parent="1">
          <mxGeometry x="1240" y="260" width="30" height="30" as="geometry" />
        </mxCell>
        <mxCell id="yM70JIaqnsp8e-wU7bxv-340" value="&lt;font style=&quot;font-size: 16px;&quot;&gt;1&lt;/font&gt;" style="text;html=1;align=center;verticalAlign=middle;resizable=0;points=[];autosize=1;strokeColor=none;fillColor=none;fontSize=16;" vertex="1" parent="1">
          <mxGeometry x="1375" y="348" width="30" height="30" as="geometry" />
        </mxCell>
        <mxCell id="yM70JIaqnsp8e-wU7bxv-341" value="role" style="rounded=0;whiteSpace=wrap;html=1;fontSize=16;" vertex="1" parent="1">
          <mxGeometry x="120" y="400" width="120" height="60" as="geometry" />
        </mxCell>
        <mxCell id="yM70JIaqnsp8e-wU7bxv-342" value="role_id" style="ellipse;whiteSpace=wrap;html=1;fontSize=16;" vertex="1" parent="1">
          <mxGeometry x="20" y="550" width="120" height="60" as="geometry" />
        </mxCell>
        <mxCell id="yM70JIaqnsp8e-wU7bxv-343" value="" style="endArrow=none;html=1;rounded=0;exitX=0.5;exitY=0;exitDx=0;exitDy=0;entryX=0.5;entryY=1;entryDx=0;entryDy=0;fontSize=16;" edge="1" parent="1" source="yM70JIaqnsp8e-wU7bxv-342" target="yM70JIaqnsp8e-wU7bxv-341">
          <mxGeometry width="50" height="50" relative="1" as="geometry">
            <mxPoint x="40" y="490" as="sourcePoint" />
            <mxPoint x="90" y="440" as="targetPoint" />
          </mxGeometry>
        </mxCell>
        <mxCell id="yM70JIaqnsp8e-wU7bxv-344" value="role_name" style="ellipse;whiteSpace=wrap;html=1;fontSize=16;" vertex="1" parent="1">
          <mxGeometry x="200" y="550" width="120" height="60" as="geometry" />
        </mxCell>
        <mxCell id="yM70JIaqnsp8e-wU7bxv-345" value="" style="endArrow=none;html=1;rounded=0;exitX=0.5;exitY=0;exitDx=0;exitDy=0;entryX=0.5;entryY=1;entryDx=0;entryDy=0;fontSize=16;" edge="1" parent="1" source="yM70JIaqnsp8e-wU7bxv-344" target="yM70JIaqnsp8e-wU7bxv-341">
          <mxGeometry width="50" height="50" relative="1" as="geometry">
            <mxPoint x="40" y="490" as="sourcePoint" />
            <mxPoint x="90" y="440" as="targetPoint" />
          </mxGeometry>
        </mxCell>
        <mxCell id="yM70JIaqnsp8e-wU7bxv-346" value="" style="rhombus;whiteSpace=wrap;html=1;fontSize=16;" vertex="1" parent="1">
          <mxGeometry x="260" y="300" width="80" height="80" as="geometry" />
        </mxCell>
        <mxCell id="yM70JIaqnsp8e-wU7bxv-347" value="" style="endArrow=none;html=1;rounded=0;entryX=0;entryY=1;entryDx=0;entryDy=0;exitX=0.5;exitY=0;exitDx=0;exitDy=0;fontSize=16;" edge="1" parent="1" source="yM70JIaqnsp8e-wU7bxv-346" target="yM70JIaqnsp8e-wU7bxv-1">
          <mxGeometry width="50" height="50" relative="1" as="geometry">
            <mxPoint x="40" y="490" as="sourcePoint" />
            <mxPoint x="90" y="440" as="targetPoint" />
          </mxGeometry>
        </mxCell>
        <mxCell id="yM70JIaqnsp8e-wU7bxv-348" value="" style="endArrow=none;html=1;rounded=0;entryX=0;entryY=0.5;entryDx=0;entryDy=0;exitX=1;exitY=0;exitDx=0;exitDy=0;fontSize=16;" edge="1" parent="1" source="yM70JIaqnsp8e-wU7bxv-341" target="yM70JIaqnsp8e-wU7bxv-346">
          <mxGeometry width="50" height="50" relative="1" as="geometry">
            <mxPoint x="40" y="490" as="sourcePoint" />
            <mxPoint x="90" y="440" as="targetPoint" />
          </mxGeometry>
        </mxCell>
        <mxCell id="yM70JIaqnsp8e-wU7bxv-350" value="&lt;font style=&quot;font-size: 16px;&quot;&gt;1&lt;/font&gt;" style="text;html=1;align=center;verticalAlign=middle;resizable=0;points=[];autosize=1;strokeColor=none;fillColor=none;fontSize=16;" vertex="1" parent="1">
          <mxGeometry x="295" y="258" width="30" height="30" as="geometry" />
        </mxCell>
        <mxCell id="yM70JIaqnsp8e-wU7bxv-351" value="&lt;font style=&quot;font-size: 16px;&quot;&gt;1&lt;/font&gt;" style="text;html=1;align=center;verticalAlign=middle;resizable=0;points=[];autosize=1;strokeColor=none;fillColor=none;fontSize=16;" vertex="1" parent="1">
          <mxGeometry x="220" y="350" width="30" height="30" as="geometry" />
        </mxCell>
        <mxCell id="yM70JIaqnsp8e-wU7bxv-356" value="role_id" style="ellipse;whiteSpace=wrap;html=1;fontSize=16;" vertex="1" parent="1">
          <mxGeometry x="130" y="130" width="120" height="60" as="geometry" />
        </mxCell>
        <mxCell id="yM70JIaqnsp8e-wU7bxv-357" value="" style="endArrow=none;html=1;rounded=0;exitX=1;exitY=0.5;exitDx=0;exitDy=0;entryX=0.433;entryY=0;entryDx=0;entryDy=0;entryPerimeter=0;" edge="1" parent="1" source="yM70JIaqnsp8e-wU7bxv-356" target="yM70JIaqnsp8e-wU7bxv-1">
          <mxGeometry width="50" height="50" relative="1" as="geometry">
            <mxPoint x="280" y="240" as="sourcePoint" />
            <mxPoint x="330" y="190" as="targetPoint" />
          </mxGeometry>
        </mxCell>
      </root>
    </mxGraphModel>
  </diagram>
</mxfile>
